<svg xmlns="http://www.w3.org/2000/svg" width="6144" height="1024" viewBox="0 0 6144 1024">
  <defs>
    <linearGradient id="skylineFill-skyline-band-secondary" x1="0" y1="0" x2="0" y2="1">
      <stop offset="0%" stop-color="#ffffff" stop-opacity="0.95" />
      <stop offset="100%" stop-color="#ffffff" stop-opacity="0.76" />
    </linearGradient>
    <linearGradient id="skylineGlow-skyline-band-secondary" x1="0" y1="0" x2="0" y2="1">
      <stop offset="0%" stop-color="#ff4fa8" stop-opacity="0.34" />
      <stop offset="100%" stop-color="#ff9548" stop-opacity="0.08" />
    </linearGradient>
    <filter id="skylineBlur-skyline-band-secondary" x="-10%" y="-10%" width="120%" height="120%">
      <feGaussianBlur stdDeviation="2.2" />
    </filter>
  </defs>
  <path d="M 0.0 737.0 L 150.0 737.0 L 150.0 500.0 L 240.0 500.0 L 240.0 737.0 L 260.0 737.0 L 260.0 478.0 L 295.0 460.0 L 330.0 478.0 L 330.0 737.0 L 350.0 737.0 L 350.0 380.0 L 366.9 458.5 L 463.1 458.5 L 383.8 537.1 L 446.2 537.1 L 480.0 380.0 L 480.0 737.0 L 500.0 737.0 L 500.0 330.0 L 580.0 330.0 L 580.0 737.0 L 600.0 737.0 L 600.0 280.0 L 647.0 280.0 L 647.0 210.0 L 650.0 198.0 L 653.0 210.0 L 653.0 280.0 L 700.0 280.0 L 700.0 737.0 L 720.0 737.0 L 720.0 240.0 L 738.2 349.3 L 841.8 349.3 L 756.4 458.7 L 823.6 458.7 L 774.6 568.0 L 805.4 568.0 L 860.0 240.0 L 860.0 737.0 L 880.0 737.0 L 880.0 200.0 L 960.0 200.0 L 960.0 737.0 L 980.0 737.0 L 980.0 180.0 L 1022.0 180.0 L 1022.0 100.0 L 1025.0 88.0 L 1028.0 100.0 L 1028.0 180.0 L 1070.0 180.0 L 1070.0 737.0 L 1090.0 737.0 L 1090.0 210.0 L 1210.0 210.0 L 1210.0 737.0 L 1240.0 737.0 L 1240.0 130.0 L 1259.5 263.5 L 1370.5 263.5 L 1279.0 397.1 L 1351.0 397.1 L 1298.5 530.6 L 1331.5 530.6 L 1390.0 130.0 L 1390.0 737.0 L 1410.0 737.0 L 1410.0 70.0 L 1447.0 70.0 L 1447.0 10.0 L 1450.0 -2.0 L 1453.0 10.0 L 1453.0 70.0 L 1490.0 70.0 L 1490.0 737.0 L 1510.0 737.0 L 1510.0 85.0 L 1591.7 85.0 L 1591.7 737.0 L 1618.3 737.0 L 1618.3 85.0 L 1700.0 85.0 L 1700.0 737.0 L 1720.0 737.0 L 1720.0 110.0 L 1820.0 110.0 L 1820.0 737.0 L 1840.0 737.0 L 1840.0 178.0 L 1885.0 160.0 L 1930.0 178.0 L 1930.0 737.0 L 1960.0 737.0 L 1960.0 350.0 L 2070.0 350.0 L 2070.0 737.0 L 2090.0 737.0 L 2090.0 380.0 L 2106.9 458.5 L 2203.1 458.5 L 2123.8 537.1 L 2186.2 537.1 L 2220.0 380.0 L 2220.0 737.0 L 2240.0 737.0 L 2240.0 410.0 L 2340.0 410.0 L 2340.0 737.0 L 2380.0 737.0 L 2380.0 200.0 L 2500.0 200.0 L 2500.0 737.0 L 2520.0 737.0 L 2520.0 100.0 L 2542.1 240.1 L 2667.9 240.1 L 2564.2 380.3 L 2645.8 380.3 L 2586.3 520.4 L 2623.7 520.4 L 2608.4 660.6 L 2601.6 660.6 L 2690.0 100.0 L 2690.0 737.0 L 2710.0 737.0 L 2710.0 45.0 L 2752.0 45.0 L 2752.0 10.0 L 2755.0 -2.0 L 2758.0 10.0 L 2758.0 45.0 L 2800.0 45.0 L 2800.0 737.0 L 2820.0 737.0 L 2820.0 60.0 L 2906.0 60.0 L 2906.0 737.0 L 2934.0 737.0 L 2934.0 60.0 L 3020.0 60.0 L 3020.0 737.0 L 3040.0 737.0 L 3040.0 90.0 L 3056.9 232.3 L 3153.1 232.3 L 3073.8 374.7 L 3136.2 374.7 L 3090.7 517.0 L 3119.3 517.0 L 3170.0 90.0 L 3170.0 737.0 L 3190.0 737.0 L 3190.0 140.0 L 3270.0 140.0 L 3270.0 737.0 L 3310.0 737.0 L 3310.0 560.0 L 3510.0 560.0 L 3510.0 737.0 L 3530.0 737.0 L 3530.0 520.0 L 3565.0 520.0 L 3565.0 737.0 L 3580.0 737.0 L 3580.0 545.0 L 3760.0 545.0 L 3760.0 737.0 L 3800.0 737.0 L 3800.0 160.0 L 3818.2 286.9 L 3921.8 286.9 L 3836.4 413.9 L 3903.6 413.9 L 3854.6 540.8 L 3885.4 540.8 L 3940.0 160.0 L 3940.0 737.0 L 3960.0 737.0 L 3960.0 90.0 L 3997.0 90.0 L 3997.0 10.0 L 4000.0 -2.0 L 4003.0 10.0 L 4003.0 90.0 L 4040.0 90.0 L 4040.0 737.0 L 4060.0 737.0 L 4060.0 75.0 L 4082.1 220.6 L 4207.9 220.6 L 4104.2 366.3 L 4185.8 366.3 L 4126.3 511.9 L 4163.7 511.9 L 4148.4 657.6 L 4141.6 657.6 L 4230.0 75.0 L 4230.0 737.0 L 4250.0 737.0 L 4250.0 95.0 L 4336.0 95.0 L 4336.0 737.0 L 4364.0 737.0 L 4364.0 95.0 L 4450.0 95.0 L 4450.0 737.0 L 4470.0 737.0 L 4470.0 130.0 L 4560.0 130.0 L 4560.0 737.0 L 4580.0 737.0 L 4580.0 188.0 L 4635.0 170.0 L 4690.0 188.0 L 4690.0 737.0 L 4710.0 737.0 L 4710.0 230.0 L 4790.0 230.0 L 4790.0 737.0 L 4830.0 737.0 L 4830.0 300.0 L 4846.9 396.1 L 4943.1 396.1 L 4863.8 492.3 L 4926.2 492.3 L 4960.0 300.0 L 4960.0 737.0 L 4980.0 737.0 L 4980.0 370.0 L 5080.0 370.0 L 5080.0 737.0 L 5100.0 737.0 L 5100.0 440.0 L 5142.0 440.0 L 5142.0 390.0 L 5145.0 378.0 L 5148.0 390.0 L 5148.0 440.0 L 5190.0 440.0 L 5190.0 737.0 L 5210.0 737.0 L 5210.0 500.0 L 5330.0 500.0 L 5330.0 737.0 L 5350.0 737.0 L 5350.0 558.0 L 5400.0 540.0 L 5450.0 558.0 L 5450.0 737.0 L 5470.0 737.0 L 5470.0 580.0 L 5560.0 580.0 L 5560.0 737.0 L 5580.0 737.0 L 5580.0 610.0 L 5690.0 610.0 L 5690.0 737.0 L 5710.0 737.0 L 5710.0 640.0 L 5790.0 640.0 L 5790.0 737.0 L 5810.0 737.0 L 5810.0 658.0 L 5900.0 658.0 L 5900.0 737.0 L 6144.0 737.0" fill="url(#skylineGlow-skyline-band-secondary)" opacity="0.16" filter="url(#skylineBlur-skyline-band-secondary)" transform="translate(0,-4)" />
  <path d="M 0.0 737.0 L 150.0 737.0 L 150.0 500.0 L 240.0 500.0 L 240.0 737.0 L 260.0 737.0 L 260.0 478.0 L 295.0 460.0 L 330.0 478.0 L 330.0 737.0 L 350.0 737.0 L 350.0 380.0 L 366.9 458.5 L 463.1 458.5 L 383.8 537.1 L 446.2 537.1 L 480.0 380.0 L 480.0 737.0 L 500.0 737.0 L 500.0 330.0 L 580.0 330.0 L 580.0 737.0 L 600.0 737.0 L 600.0 280.0 L 647.0 280.0 L 647.0 210.0 L 650.0 198.0 L 653.0 210.0 L 653.0 280.0 L 700.0 280.0 L 700.0 737.0 L 720.0 737.0 L 720.0 240.0 L 738.2 349.3 L 841.8 349.3 L 756.4 458.7 L 823.6 458.7 L 774.6 568.0 L 805.4 568.0 L 860.0 240.0 L 860.0 737.0 L 880.0 737.0 L 880.0 200.0 L 960.0 200.0 L 960.0 737.0 L 980.0 737.0 L 980.0 180.0 L 1022.0 180.0 L 1022.0 100.0 L 1025.0 88.0 L 1028.0 100.0 L 1028.0 180.0 L 1070.0 180.0 L 1070.0 737.0 L 1090.0 737.0 L 1090.0 210.0 L 1210.0 210.0 L 1210.0 737.0 L 1240.0 737.0 L 1240.0 130.0 L 1259.5 263.5 L 1370.5 263.5 L 1279.0 397.1 L 1351.0 397.1 L 1298.5 530.6 L 1331.5 530.6 L 1390.0 130.0 L 1390.0 737.0 L 1410.0 737.0 L 1410.0 70.0 L 1447.0 70.0 L 1447.0 10.0 L 1450.0 -2.0 L 1453.0 10.0 L 1453.0 70.0 L 1490.0 70.0 L 1490.0 737.0 L 1510.0 737.0 L 1510.0 85.0 L 1591.7 85.0 L 1591.7 737.0 L 1618.3 737.0 L 1618.3 85.0 L 1700.0 85.0 L 1700.0 737.0 L 1720.0 737.0 L 1720.0 110.0 L 1820.0 110.0 L 1820.0 737.0 L 1840.0 737.0 L 1840.0 178.0 L 1885.0 160.0 L 1930.0 178.0 L 1930.0 737.0 L 1960.0 737.0 L 1960.0 350.0 L 2070.0 350.0 L 2070.0 737.0 L 2090.0 737.0 L 2090.0 380.0 L 2106.9 458.5 L 2203.1 458.5 L 2123.8 537.1 L 2186.2 537.1 L 2220.0 380.0 L 2220.0 737.0 L 2240.0 737.0 L 2240.0 410.0 L 2340.0 410.0 L 2340.0 737.0 L 2380.0 737.0 L 2380.0 200.0 L 2500.0 200.0 L 2500.0 737.0 L 2520.0 737.0 L 2520.0 100.0 L 2542.1 240.1 L 2667.9 240.1 L 2564.2 380.3 L 2645.8 380.3 L 2586.3 520.4 L 2623.7 520.4 L 2608.4 660.6 L 2601.6 660.6 L 2690.0 100.0 L 2690.0 737.0 L 2710.0 737.0 L 2710.0 45.0 L 2752.0 45.0 L 2752.0 10.0 L 2755.0 -2.0 L 2758.0 10.0 L 2758.0 45.0 L 2800.0 45.0 L 2800.0 737.0 L 2820.0 737.0 L 2820.0 60.0 L 2906.0 60.0 L 2906.0 737.0 L 2934.0 737.0 L 2934.0 60.0 L 3020.0 60.0 L 3020.0 737.0 L 3040.0 737.0 L 3040.0 90.0 L 3056.9 232.3 L 3153.1 232.3 L 3073.8 374.7 L 3136.2 374.7 L 3090.7 517.0 L 3119.3 517.0 L 3170.0 90.0 L 3170.0 737.0 L 3190.0 737.0 L 3190.0 140.0 L 3270.0 140.0 L 3270.0 737.0 L 3310.0 737.0 L 3310.0 560.0 L 3510.0 560.0 L 3510.0 737.0 L 3530.0 737.0 L 3530.0 520.0 L 3565.0 520.0 L 3565.0 737.0 L 3580.0 737.0 L 3580.0 545.0 L 3760.0 545.0 L 3760.0 737.0 L 3800.0 737.0 L 3800.0 160.0 L 3818.2 286.9 L 3921.8 286.9 L 3836.4 413.9 L 3903.6 413.9 L 3854.6 540.8 L 3885.4 540.8 L 3940.0 160.0 L 3940.0 737.0 L 3960.0 737.0 L 3960.0 90.0 L 3997.0 90.0 L 3997.0 10.0 L 4000.0 -2.0 L 4003.0 10.0 L 4003.0 90.0 L 4040.0 90.0 L 4040.0 737.0 L 4060.0 737.0 L 4060.0 75.0 L 4082.1 220.6 L 4207.9 220.6 L 4104.2 366.3 L 4185.8 366.3 L 4126.3 511.9 L 4163.7 511.9 L 4148.4 657.6 L 4141.6 657.6 L 4230.0 75.0 L 4230.0 737.0 L 4250.0 737.0 L 4250.0 95.0 L 4336.0 95.0 L 4336.0 737.0 L 4364.0 737.0 L 4364.0 95.0 L 4450.0 95.0 L 4450.0 737.0 L 4470.0 737.0 L 4470.0 130.0 L 4560.0 130.0 L 4560.0 737.0 L 4580.0 737.0 L 4580.0 188.0 L 4635.0 170.0 L 4690.0 188.0 L 4690.0 737.0 L 4710.0 737.0 L 4710.0 230.0 L 4790.0 230.0 L 4790.0 737.0 L 4830.0 737.0 L 4830.0 300.0 L 4846.9 396.1 L 4943.1 396.1 L 4863.8 492.3 L 4926.2 492.3 L 4960.0 300.0 L 4960.0 737.0 L 4980.0 737.0 L 4980.0 370.0 L 5080.0 370.0 L 5080.0 737.0 L 5100.0 737.0 L 5100.0 440.0 L 5142.0 440.0 L 5142.0 390.0 L 5145.0 378.0 L 5148.0 390.0 L 5148.0 440.0 L 5190.0 440.0 L 5190.0 737.0 L 5210.0 737.0 L 5210.0 500.0 L 5330.0 500.0 L 5330.0 737.0 L 5350.0 737.0 L 5350.0 558.0 L 5400.0 540.0 L 5450.0 558.0 L 5450.0 737.0 L 5470.0 737.0 L 5470.0 580.0 L 5560.0 580.0 L 5560.0 737.0 L 5580.0 737.0 L 5580.0 610.0 L 5690.0 610.0 L 5690.0 737.0 L 5710.0 737.0 L 5710.0 640.0 L 5790.0 640.0 L 5790.0 737.0 L 5810.0 737.0 L 5810.0 658.0 L 5900.0 658.0 L 5900.0 737.0 L 6144.0 737.0" fill="url(#skylineFill-skyline-band-secondary)" stroke="#ff9548" stroke-width="6" stroke-linejoin="round" shape-rendering="geometricPrecision" />
  <path d="M 0 737 H 6144" stroke="#ff4fa8" stroke-width="8" stroke-opacity="0.28" />
</svg>