<svg xmlns="http://www.w3.org/2000/svg" width="6144" height="1024" viewBox="0 0 6144 1024">
  <defs>
    <linearGradient id="skylineFill-skyline-band-primary" x1="0" y1="0" x2="0" y2="1">
      <stop offset="0%" stop-color="#ffffff" stop-opacity="0.95" />
      <stop offset="100%" stop-color="#ffffff" stop-opacity="0.76" />
    </linearGradient>
    <linearGradient id="skylineGlow-skyline-band-primary" x1="0" y1="0" x2="0" y2="1">
      <stop offset="0%" stop-color="#ff4fa8" stop-opacity="0.34" />
      <stop offset="100%" stop-color="#ff9548" stop-opacity="0.08" />
    </linearGradient>
    <filter id="skylineBlur-skyline-band-primary" x="-10%" y="-10%" width="120%" height="120%">
      <feGaussianBlur stdDeviation="2.2" />
    </filter>
  </defs>
  <path d="M 0.0 737.0 L 200.0 737.0 L 200.0 620.0 L 280.0 620.0 L 280.0 737.0 L 300.0 737.0 L 300.0 570.0 L 400.0 570.0 L 400.0 737.0 L 420.0 737.0 L 420.0 548.0 L 455.0 530.0 L 490.0 548.0 L 490.0 737.0 L 510.0 737.0 L 510.0 490.0 L 620.0 490.0 L 620.0 737.0 L 640.0 737.0 L 640.0 450.0 L 651.7 513.1 L 718.3 513.1 L 663.4 576.3 L 706.6 576.3 L 730.0 450.0 L 730.0 737.0 L 750.0 737.0 L 750.0 410.0 L 830.0 410.0 L 830.0 737.0 L 850.0 737.0 L 850.0 380.0 L 882.0 380.0 L 882.0 330.0 L 885.0 318.0 L 888.0 330.0 L 888.0 380.0 L 920.0 380.0 L 920.0 737.0 L 950.0 737.0 L 950.0 280.0 L 1050.0 280.0 L 1050.0 737.0 L 1070.0 737.0 L 1070.0 210.0 L 1086.9 325.9 L 1183.1 325.9 L 1103.8 441.9 L 1166.2 441.9 L 1120.7 557.8 L 1149.3 557.8 L 1200.0 210.0 L 1200.0 737.0 L 1220.0 737.0 L 1220.0 160.0 L 1257.0 160.0 L 1257.0 70.0 L 1260.0 58.0 L 1263.0 70.0 L 1263.0 160.0 L 1300.0 160.0 L 1300.0 737.0 L 1320.0 737.0 L 1320.0 120.0 L 1339.5 255.7 L 1450.5 255.7 L 1359.0 391.5 L 1431.0 391.5 L 1378.5 527.2 L 1411.5 527.2 L 1398.0 663.0 L 1392.0 663.0 L 1470.0 120.0 L 1470.0 737.0 L 1490.0 737.0 L 1490.0 100.0 L 1550.0 100.0 L 1550.0 737.0 L 1570.0 737.0 L 1570.0 60.0 L 1622.0 60.0 L 1622.0 10.0 L 1625.0 -2.0 L 1628.0 10.0 L 1628.0 60.0 L 1680.0 60.0 L 1680.0 737.0 L 1700.0 737.0 L 1700.0 80.0 L 1786.0 80.0 L 1786.0 737.0 L 1814.0 737.0 L 1814.0 80.0 L 1900.0 80.0 L 1900.0 737.0 L 1920.0 737.0 L 1920.0 100.0 L 1938.2 240.1 L 2041.8 240.1 L 1956.4 380.3 L 2023.6 380.3 L 1974.6 520.4 L 2005.4 520.4 L 2060.0 100.0 L 2060.0 737.0 L 2080.0 737.0 L 2080.0 130.0 L 2170.0 130.0 L 2170.0 737.0 L 2190.0 737.0 L 2190.0 170.0 L 2227.0 170.0 L 2227.0 100.0 L 2230.0 88.0 L 2233.0 100.0 L 2233.0 170.0 L 2270.0 170.0 L 2270.0 737.0 L 2290.0 737.0 L 2290.0 200.0 L 2410.0 200.0 L 2410.0 737.0 L 2430.0 737.0 L 2430.0 268.0 L 2480.0 250.0 L 2530.0 268.0 L 2530.0 737.0 L 2550.0 737.0 L 2550.0 300.0 L 2640.0 300.0 L 2640.0 737.0 L 2680.0 737.0 L 2680.0 580.0 L 2940.0 580.0 L 2940.0 737.0 L 2960.0 737.0 L 2960.0 540.0 L 2990.0 540.0 L 2990.0 737.0 L 3010.0 737.0 L 3010.0 570.0 L 3230.0 570.0 L 3230.0 737.0 L 3250.0 737.0 L 3250.0 555.0 L 3267.0 555.0 L 3267.0 525.0 L 3270.0 513.0 L 3273.0 525.0 L 3273.0 555.0 L 3290.0 555.0 L 3290.0 737.0 L 3310.0 737.0 L 3310.0 560.0 L 3490.0 560.0 L 3490.0 737.0 L 3520.0 737.0 L 3520.0 290.0 L 3610.0 290.0 L 3610.0 737.0 L 3630.0 737.0 L 3630.0 140.0 L 3652.1 271.3 L 3777.9 271.3 L 3674.2 402.7 L 3755.8 402.7 L 3696.3 534.0 L 3733.7 534.0 L 3718.4 665.4 L 3711.6 665.4 L 3800.0 140.0 L 3800.0 737.0 L 3820.0 737.0 L 3820.0 90.0 L 3914.6 90.0 L 3914.6 737.0 L 3945.4 737.0 L 3945.4 90.0 L 4040.0 90.0 L 4040.0 737.0 L 4060.0 737.0 L 4060.0 55.0 L 4099.5 55.0 L 4099.5 10.0 L 4102.5 -2.0 L 4105.5 10.0 L 4105.5 55.0 L 4145.0 55.0 L 4145.0 737.0 L 4165.0 737.0 L 4165.0 70.0 L 4184.5 216.7 L 4295.5 216.7 L 4204.0 363.5 L 4276.0 363.5 L 4223.5 510.2 L 4256.5 510.2 L 4315.0 70.0 L 4315.0 737.0 L 4335.0 737.0 L 4335.0 110.0 L 4415.0 110.0 L 4415.0 737.0 L 4435.0 737.0 L 4435.0 158.0 L 4485.0 140.0 L 4535.0 158.0 L 4535.0 737.0 L 4555.0 737.0 L 4555.0 160.0 L 4571.9 286.9 L 4668.1 286.9 L 4588.8 413.9 L 4651.2 413.9 L 4685.0 160.0 L 4685.0 737.0 L 4705.0 737.0 L 4705.0 220.0 L 4785.0 220.0 L 4785.0 737.0 L 4805.0 737.0 L 4805.0 270.0 L 4847.0 270.0 L 4847.0 210.0 L 4850.0 198.0 L 4853.0 210.0 L 4853.0 270.0 L 4895.0 270.0 L 4895.0 737.0 L 4915.0 737.0 L 4915.0 320.0 L 5035.0 320.0 L 5035.0 737.0 L 5055.0 737.0 L 5055.0 380.0 L 5155.0 380.0 L 5155.0 737.0 L 5180.0 737.0 L 5180.0 448.0 L 5225.0 430.0 L 5270.0 448.0 L 5270.0 737.0 L 5290.0 737.0 L 5290.0 490.0 L 5400.0 490.0 L 5400.0 737.0 L 5420.0 737.0 L 5420.0 540.0 L 5500.0 540.0 L 5500.0 737.0 L 5520.0 737.0 L 5520.0 580.0 L 5533.0 614.5 L 5607.0 614.5 L 5546.0 649.1 L 5594.0 649.1 L 5620.0 580.0 L 5620.0 737.0 L 5640.0 737.0 L 5640.0 620.0 L 5730.0 620.0 L 5730.0 737.0 L 5750.0 737.0 L 5750.0 650.0 L 5830.0 650.0 L 5830.0 737.0 L 6144.0 737.0" fill="url(#skylineGlow-skyline-band-primary)" opacity="0.16" filter="url(#skylineBlur-skyline-band-primary)" transform="translate(0,-4)" />
  <path d="M 0.0 737.0 L 200.0 737.0 L 200.0 620.0 L 280.0 620.0 L 280.0 737.0 L 300.0 737.0 L 300.0 570.0 L 400.0 570.0 L 400.0 737.0 L 420.0 737.0 L 420.0 548.0 L 455.0 530.0 L 490.0 548.0 L 490.0 737.0 L 510.0 737.0 L 510.0 490.0 L 620.0 490.0 L 620.0 737.0 L 640.0 737.0 L 640.0 450.0 L 651.7 513.1 L 718.3 513.1 L 663.4 576.3 L 706.6 576.3 L 730.0 450.0 L 730.0 737.0 L 750.0 737.0 L 750.0 410.0 L 830.0 410.0 L 830.0 737.0 L 850.0 737.0 L 850.0 380.0 L 882.0 380.0 L 882.0 330.0 L 885.0 318.0 L 888.0 330.0 L 888.0 380.0 L 920.0 380.0 L 920.0 737.0 L 950.0 737.0 L 950.0 280.0 L 1050.0 280.0 L 1050.0 737.0 L 1070.0 737.0 L 1070.0 210.0 L 1086.9 325.9 L 1183.1 325.9 L 1103.8 441.9 L 1166.2 441.9 L 1120.7 557.8 L 1149.3 557.8 L 1200.0 210.0 L 1200.0 737.0 L 1220.0 737.0 L 1220.0 160.0 L 1257.0 160.0 L 1257.0 70.0 L 1260.0 58.0 L 1263.0 70.0 L 1263.0 160.0 L 1300.0 160.0 L 1300.0 737.0 L 1320.0 737.0 L 1320.0 120.0 L 1339.5 255.7 L 1450.5 255.7 L 1359.0 391.5 L 1431.0 391.5 L 1378.5 527.2 L 1411.5 527.2 L 1398.0 663.0 L 1392.0 663.0 L 1470.0 120.0 L 1470.0 737.0 L 1490.0 737.0 L 1490.0 100.0 L 1550.0 100.0 L 1550.0 737.0 L 1570.0 737.0 L 1570.0 60.0 L 1622.0 60.0 L 1622.0 10.0 L 1625.0 -2.0 L 1628.0 10.0 L 1628.0 60.0 L 1680.0 60.0 L 1680.0 737.0 L 1700.0 737.0 L 1700.0 80.0 L 1786.0 80.0 L 1786.0 737.0 L 1814.0 737.0 L 1814.0 80.0 L 1900.0 80.0 L 1900.0 737.0 L 1920.0 737.0 L 1920.0 100.0 L 1938.2 240.1 L 2041.8 240.1 L 1956.4 380.3 L 2023.6 380.3 L 1974.6 520.4 L 2005.4 520.4 L 2060.0 100.0 L 2060.0 737.0 L 2080.0 737.0 L 2080.0 130.0 L 2170.0 130.0 L 2170.0 737.0 L 2190.0 737.0 L 2190.0 170.0 L 2227.0 170.0 L 2227.0 100.0 L 2230.0 88.0 L 2233.0 100.0 L 2233.0 170.0 L 2270.0 170.0 L 2270.0 737.0 L 2290.0 737.0 L 2290.0 200.0 L 2410.0 200.0 L 2410.0 737.0 L 2430.0 737.0 L 2430.0 268.0 L 2480.0 250.0 L 2530.0 268.0 L 2530.0 737.0 L 2550.0 737.0 L 2550.0 300.0 L 2640.0 300.0 L 2640.0 737.0 L 2680.0 737.0 L 2680.0 580.0 L 2940.0 580.0 L 2940.0 737.0 L 2960.0 737.0 L 2960.0 540.0 L 2990.0 540.0 L 2990.0 737.0 L 3010.0 737.0 L 3010.0 570.0 L 3230.0 570.0 L 3230.0 737.0 L 3250.0 737.0 L 3250.0 555.0 L 3267.0 555.0 L 3267.0 525.0 L 3270.0 513.0 L 3273.0 525.0 L 3273.0 555.0 L 3290.0 555.0 L 3290.0 737.0 L 3310.0 737.0 L 3310.0 560.0 L 3490.0 560.0 L 3490.0 737.0 L 3520.0 737.0 L 3520.0 290.0 L 3610.0 290.0 L 3610.0 737.0 L 3630.0 737.0 L 3630.0 140.0 L 3652.1 271.3 L 3777.9 271.3 L 3674.2 402.7 L 3755.8 402.7 L 3696.3 534.0 L 3733.7 534.0 L 3718.4 665.4 L 3711.6 665.4 L 3800.0 140.0 L 3800.0 737.0 L 3820.0 737.0 L 3820.0 90.0 L 3914.6 90.0 L 3914.6 737.0 L 3945.4 737.0 L 3945.4 90.0 L 4040.0 90.0 L 4040.0 737.0 L 4060.0 737.0 L 4060.0 55.0 L 4099.5 55.0 L 4099.5 10.0 L 4102.5 -2.0 L 4105.5 10.0 L 4105.5 55.0 L 4145.0 55.0 L 4145.0 737.0 L 4165.0 737.0 L 4165.0 70.0 L 4184.5 216.7 L 4295.5 216.7 L 4204.0 363.5 L 4276.0 363.5 L 4223.5 510.2 L 4256.5 510.2 L 4315.0 70.0 L 4315.0 737.0 L 4335.0 737.0 L 4335.0 110.0 L 4415.0 110.0 L 4415.0 737.0 L 4435.0 737.0 L 4435.0 158.0 L 4485.0 140.0 L 4535.0 158.0 L 4535.0 737.0 L 4555.0 737.0 L 4555.0 160.0 L 4571.9 286.9 L 4668.1 286.9 L 4588.8 413.9 L 4651.2 413.9 L 4685.0 160.0 L 4685.0 737.0 L 4705.0 737.0 L 4705.0 220.0 L 4785.0 220.0 L 4785.0 737.0 L 4805.0 737.0 L 4805.0 270.0 L 4847.0 270.0 L 4847.0 210.0 L 4850.0 198.0 L 4853.0 210.0 L 4853.0 270.0 L 4895.0 270.0 L 4895.0 737.0 L 4915.0 737.0 L 4915.0 320.0 L 5035.0 320.0 L 5035.0 737.0 L 5055.0 737.0 L 5055.0 380.0 L 5155.0 380.0 L 5155.0 737.0 L 5180.0 737.0 L 5180.0 448.0 L 5225.0 430.0 L 5270.0 448.0 L 5270.0 737.0 L 5290.0 737.0 L 5290.0 490.0 L 5400.0 490.0 L 5400.0 737.0 L 5420.0 737.0 L 5420.0 540.0 L 5500.0 540.0 L 5500.0 737.0 L 5520.0 737.0 L 5520.0 580.0 L 5533.0 614.5 L 5607.0 614.5 L 5546.0 649.1 L 5594.0 649.1 L 5620.0 580.0 L 5620.0 737.0 L 5640.0 737.0 L 5640.0 620.0 L 5730.0 620.0 L 5730.0 737.0 L 5750.0 737.0 L 5750.0 650.0 L 5830.0 650.0 L 5830.0 737.0 L 6144.0 737.0" fill="url(#skylineFill-skyline-band-primary)" stroke="#ff9548" stroke-width="6" stroke-linejoin="round" shape-rendering="geometricPrecision" />
  <path d="M 0 737 H 6144" stroke="#ff4fa8" stroke-width="8" stroke-opacity="0.28" />
</svg>